<?xml version="1.0" encoding="UTF-8"?>
<!-- Generator: visioncortex VTracer 0.6.0 -->
<svg version="1.1" xmlns="http://www.w3.org/2000/svg" width="500" height="500">
<path d="M0 0 C99.23667244 1.10262969 99.23667244 1.10262969 113.6875 5.625 C114.52635742 5.88369873 115.36521484 6.14239746 116.22949219 6.40893555 C156.87126957 19.32140447 192.85066475 45.99590249 213.0078125 84.09765625 C213.67579076 85.39643102 214.33991306 86.69719683 215 88 C215.32194336 88.63147949 215.64388672 89.26295898 215.97558594 89.91357422 C227.59567794 112.993194 232.58202988 138.1668275 232 164 C232.75925781 163.98839844 233.51851562 163.97679687 234.30078125 163.96484375 C235.29464844 163.95582031 236.28851563 163.94679687 237.3125 163.9375 C238.29863281 163.92589844 239.28476562 163.91429687 240.30078125 163.90234375 C243 164 243 164 246 165 C247.19693802 171.57357838 247.13647222 178.05733148 247.12025452 184.72447205 C247.12153615 186.65067134 247.12153615 186.65067134 247.12284368 188.61578375 C247.12507408 192.16867226 247.12108731 195.72153048 247.11606562 199.27441514 C247.11174039 203.11004707 247.11320902 206.94567735 247.1139679 210.78131104 C247.11449181 217.42302288 247.11135878 224.06472488 247.10573006 230.70643425 C247.09759721 240.30918795 247.094998 249.91193691 247.09374207 259.51469368 C247.09155436 275.09516632 247.08490187 290.67563372 247.07543945 306.25610352 C247.06625808 321.38956679 247.05918079 336.52302864 247.05493164 351.65649414 C247.05466892 352.58958469 247.05440619 353.52267524 247.05413551 354.48404127 C247.05283046 359.16516112 247.05156675 363.84628098 247.05032361 368.52740085 C247.03995974 407.35160424 247.02234905 446.17580177 247 485 C235.49782917 485.09343822 223.99575133 485.16413439 212.49327564 485.20724869 C207.14991995 485.22796057 201.80682738 485.25597129 196.46362305 485.30175781 C191.28938468 485.34580963 186.11539641 485.36925969 180.94098473 485.37950897 C178.98500325 485.38679553 177.02903258 485.40101726 175.07316017 485.42292023 C157.18032394 485.61498716 139.98179643 483.29148289 123 477.4375 C121.51717529 476.93259033 121.51717529 476.93259033 120.00439453 476.41748047 C95.89662106 467.86335749 76.89714985 453.89714985 59 436 C57.84951172 434.91912109 57.84951172 434.91912109 56.67578125 433.81640625 C25.52725083 404.10946071 15.01833475 362.50591995 14 321 C9.38 321 4.76 321 0 321 C0 215.07 0 109.14 0 0 Z M20 18 C20 103.14 20 188.28 20 276 C21.53351916 272.93296168 22.75798699 269.98968009 23.90185547 266.77270508 C31.86110934 244.50990349 43.90477492 225.30374027 60 208 C60.97839844 206.90558594 60.97839844 206.90558594 61.9765625 205.7890625 C85.69881734 180.41815674 122.20772008 167.34118278 156.26785278 165.85766602 C164.52809729 165.60181049 172.79046211 165.49359008 181.05389404 165.39910889 C184.44031865 165.35846232 187.82659108 165.30765358 191.21289062 165.2578125 C197.80849424 165.16272769 204.40416671 165.07742958 211 165 C210.86509247 161.33955027 210.72047452 157.67954373 210.57421875 154.01953125 C210.51760071 152.47851746 210.51760071 152.47851746 210.45983887 150.90637207 C209.20992542 120.30483271 196.60267751 92.23835575 177 69 C176.33613281 68.20078125 175.67226563 67.4015625 174.98828125 66.578125 C157.78060864 46.60322963 134.52085966 32.88961429 109.625 24.6875 C108.94381104 24.45699951 108.26262207 24.22649902 107.56079102 23.98901367 C79.77815143 15.38533716 47.72801345 18.4545576 20 18 Z M176.03857422 183.26245117 C173.8534266 183.29570694 171.66819294 183.32373682 169.48291016 183.34643555 C153.24874078 183.51867166 137.8277068 184.20443402 122.5 190.125 C121.31736572 190.5739563 121.31736572 190.5739563 120.11083984 191.03198242 C106.68010698 196.31498911 95.08272373 203.84072419 84 213 C82.84371094 213.94359375 82.84371094 213.94359375 81.6640625 214.90625 C76.9508337 218.87908653 72.87903799 223.21502957 69 228 C68.30003906 228.86238281 67.60007812 229.72476563 66.87890625 230.61328125 C60.64296131 238.60004609 55.70428935 247.04772115 51 256 C50.45472656 257.01191406 49.90945312 258.02382813 49.34765625 259.06640625 C45.77369995 266.18587888 43.45423898 273.56606797 41.1875 281.1875 C40.88505371 282.19748047 40.58260742 283.20746094 40.27099609 284.24804688 C38.48336206 290.4981148 37.39074082 296.5094105 37 303 C45.29073834 303.06841412 53.58047875 303.06386397 61.87127686 303.01245117 C63.3047411 303.00406666 64.73821423 302.99709536 66.17169189 302.99145508 C93.47830485 302.96308248 93.47830485 302.96308248 120 297 C120.74830078 296.74444336 121.49660156 296.48888672 122.26757812 296.22558594 C155.89510007 284.32009924 181.66987751 258.28043877 196.88183594 226.44824219 C202.87646402 213.3228862 209.25235489 197.63031413 209 183 C198.01056303 182.98034535 187.02645809 183.08279263 176.03857422 183.26245117 Z M225 210 C224.81526123 210.55647217 224.63052246 211.11294434 224.44018555 211.6862793 C215.7624428 237.47692099 203.86578709 259.39841778 185 279 C184.43152344 279.63164062 183.86304688 280.26328125 183.27734375 280.9140625 C159.04169634 307.07120625 121.37474354 318.60395019 86.78884888 320.1428833 C78.46530518 320.41233623 70.13942373 320.51901595 61.8125 320.625 C59.29751409 320.66328528 56.78253981 320.70234264 54.26757812 320.7421875 C48.17849051 320.83700733 42.08932978 320.92236857 36 321 C35.95203781 324.45177387 35.92367615 327.90345986 35.8984375 331.35546875 C35.88482178 332.31835815 35.87120605 333.28124756 35.85717773 334.27331543 C35.66444969 369.57961132 54.47976193 403.23521377 78.75 427.78125 C121.44040798 467.98965752 170.24362924 467 227 467 C226.67 382.19 226.34 297.38 226 210 C225.67 210 225.34 210 225 210 Z " fill="#09B1EF" transform="translate(127,7)"/>
<path d="M0 0 C0.33 0 0.66 0 1 0 C1 88.44 1 176.88 1 268 C-18.47 268 -37.94 268 -58 268 C-58 267.67 -58 267.34 -58 267 C-38.86 267 -19.72 267 0 267 C-0.495 265.515 -0.495 265.515 -1 264 C-1.09590115 262.54795066 -1.13723221 261.09194133 -1.14425182 259.63674545 C-1.15095967 258.73985654 -1.15766751 257.84296762 -1.16457862 256.91890025 C-1.16692096 255.9324399 -1.16926331 254.94597955 -1.17167664 253.92962646 C-1.17802574 252.88252919 -1.18437485 251.83543192 -1.19091636 250.75660443 C-1.21103575 247.23064772 -1.22403812 243.7047005 -1.23706055 240.17871094 C-1.24990862 237.6576365 -1.26316288 235.1365641 -1.27679443 232.61549377 C-1.3087531 226.46735788 -1.33594899 220.31921718 -1.36059722 214.17104807 C-1.38065215 209.17307932 -1.4022487 204.17511965 -1.42493629 199.17716217 C-1.4890642 185.00861772 -1.54898456 170.8400643 -1.60361841 156.67148003 C-1.60656545 155.90735744 -1.60951248 155.14323485 -1.61254883 154.35595703 C-1.61549856 153.59090171 -1.6184483 152.82584639 -1.62148742 152.03760758 C-1.66953443 139.6429175 -1.7276151 127.24829736 -1.79024651 114.85367319 C-1.85443131 102.12850244 -1.91105092 89.40331736 -1.95981437 76.67807794 C-1.98735022 69.53327535 -2.01801758 62.38851784 -2.05682945 55.24376678 C-2.09327303 48.52320486 -2.11923286 41.80268251 -2.1381073 35.0820446 C-2.14668732 32.61452966 -2.15873491 30.14702399 -2.17449379 27.67954445 C-2.19545853 24.31242056 -2.2039386 20.9454878 -2.20927429 17.57830811 C-2.2183088 16.60077064 -2.22734331 15.62323318 -2.2366516 14.61607337 C-2.23016866 9.34254014 -1.73473894 4.98994025 0 0 Z " fill="#9FE1F8" transform="translate(354,207)"/>
<path d="M0 0 C0.66 0 1.32 0 2 0 C2.17333058 33.13065396 2.3359815 66.26134042 2.48431293 99.39211524 C2.50183459 103.30364684 2.51944466 107.21517803 2.53710938 111.12670898 C2.54062461 111.90542327 2.54413985 112.68413755 2.5477616 113.48644923 C2.60488805 126.09471175 2.66917584 138.70292809 2.736111 151.31114192 C2.80463494 164.24865774 2.86546112 177.18619324 2.91914403 190.12377924 C2.95251086 198.10673265 2.99187909 206.08961011 3.03892837 214.0724948 C3.07436465 220.19413063 3.09908994 226.31576715 3.11981392 232.43746948 C3.12999296 234.948523 3.14365266 237.45956517 3.16103554 239.97057915 C3.18423681 243.39697389 3.19495335 246.82318932 3.20254517 250.24964905 C3.2122618 251.24479666 3.22197843 252.23994428 3.2319895 253.26524788 C3.22911784 258.5807418 2.75530222 262.97217684 1 268 C0.67 268 0.34 268 0 268 C0 179.56 0 91.12 0 0 Z " fill="#98DEF8" transform="translate(145,25)"/>
</svg>
